Coordinates
version=1
nRows=37
nColumns=34
inDegrees=no

Units are S.I. units (second, meters, Newtons, ...)
If the header above contains a line with 'inDegrees', this indicates whether rotational values are in degrees (yes) or radians (no).

endheader
time	pelvis_tilt	pelvis_list	pelvis_rotation	pelvis_tx	pelvis_ty	pelvis_tz	hip_flexion_r	hip_adduction_r	hip_rotation_r	knee_angle_r	ankle_angle_r	subtalar_angle_r	mtp_angle_r	hip_flexion_l	hip_adduction_l	hip_rotation_l	knee_angle_l	ankle_angle_l	subtalar_angle_l	mtp_angle_l	lumbar_extension	lumbar_bending	lumbar_rotation	arm_flex_r	arm_add_r	arm_rot_r	elbow_flex_r	pro_sup_r	arm_flex_l	arm_add_l	arm_rot_l	elbow_flex_l	pro_sup_l
2.01	-0.426166	0.0772484	-0.0791188	-0.206132	0.763625	-0.601839	1.20534	-0.0920546	0.275926	1.37343	0.300316	-0.610865	0	1.2339	-0.122549	0.0454227	1.40831	0.218955	-0.582161	0	-0.115897	-0.0639633	0.00321425	2.25219	-0.224532	0.550524	1.72698	2.0303	2.46064	-0.249043	0.80057	1.74633	1.9384
2.02	-0.421509	0.0710018	-0.0785401	-0.199696	0.778829	-0.601948	1.16647	-0.090412	0.252864	1.3249	0.269357	-0.610865	0	1.20001	-0.122127	0.0344345	1.36597	0.205321	-0.536694	0	-0.091453	-0.0595888	0.0107104	2.30984	-0.244675	0.602488	1.64885	1.99506	2.51509	-0.246143	0.85045	1.67025	1.93066
2.03	-0.41944	0.0634353	-0.0778175	-0.193001	0.794654	-0.602238	1.12789	-0.0884523	0.228841	1.27187	0.241047	-0.599588	0	1.16753	-0.122601	0.0246876	1.32059	0.190909	-0.486312	0	-0.0630527	-0.053529	0.0221464	2.36477	-0.263581	0.658567	1.56295	1.96674	2.55856	-0.23379	0.890666	1.58143	1.93977
2.04	-0.416674	0.0548223	-0.0773657	-0.186084	0.811421	-0.602645	1.08666	-0.0876454	0.203144	1.21471	0.220618	-0.553495	0	1.13293	-0.124337	0.014899	1.27174	0.172249	-0.434264	0	-0.0353357	-0.045836	0.0362214	2.41817	-0.27864	0.71762	1.4674	1.96058	2.59439	-0.216238	0.921773	1.479	1.97589
2.05	-0.410655	0.0461885	-0.0775321	-0.179225	0.829166	-0.602942	1.04093	-0.0870048	0.17786	1.15377	0.199036	-0.499545	0	1.0937	-0.12705	0.00418693	1.2193	0.149075	-0.38183	0	-0.0129118	-0.037066	0.0496209	2.47045	-0.283637	0.773452	1.35965	1.96942	2.62805	-0.199009	0.947584	1.36844	2.0113
2.06	-0.401498	0.0382697	-0.0785393	-0.172547	0.84784	-0.603084	0.99092	-0.0855064	0.155398	1.08863	0.170309	-0.444864	0	1.04958	-0.130359	-0.00850591	1.1626	0.122017	-0.328668	0	0.00409492	-0.028041	0.0612695	2.51898	-0.27696	0.821558	1.24125	1.97912	2.66071	-0.183155	0.972788	1.25241	2.03085
2.07	-0.391027	0.0309522	-0.0801318	-0.165797	0.867577	-0.603345	0.937618	-0.0836604	0.13537	1.01781	0.13239	-0.389056	0	1.00115	-0.133747	-0.023934	1.09973	0.0909825	-0.27344	0	0.019043	-0.0191078	0.0727795	2.55995	-0.263672	0.86237	1.12044	1.99183	2.68904	-0.165881	1.00059	1.13057	2.05049
2.08	-0.378891	0.0249954	-0.0820066	-0.158837	0.888538	-0.603925	0.880902	-0.0836089	0.116614	0.941198	0.0850397	-0.329365	0	0.947063	-0.135848	-0.0418865	1.02917	0.0532439	-0.215617	0	0.0319187	-0.0115699	0.084307	2.5923	-0.247778	0.896016	1.00393	2.01419	2.71297	-0.146111	1.03546	1.0055	2.08416
2.09	-0.363396	0.0219183	-0.0836951	-0.151883	0.910602	-0.604715	0.820275	-0.0874666	0.0991819	0.859971	0.0267078	-0.268501	0	0.885439	-0.134746	-0.0614457	0.950207	0.00592562	-0.156224	0	0.0399498	-0.00756673	0.0938797	2.61802	-0.228927	0.920877	0.891199	2.04295	2.73608	-0.125114	1.08598	0.885329	2.09
2.1	-0.345411	0.0215701	-0.0838431	-0.145077	0.933434	-0.605702	0.756067	-0.0960413	0.0814332	0.773279	-0.0450336	-0.210114	0	0.817172	-0.12931	-0.0808207	0.861634	-0.0524325	-0.0979077	0	0.0438092	-0.00709509	0.0997987	2.63895	-0.20741	0.93851	0.781503	2.07628	2.75825	-0.103976	1.15015	0.774674	2.09
2.11	-0.32764	0.0219999	-0.0809009	-0.138379	0.956641	-0.607089	0.68911	-0.108558	0.0592152	0.679238	-0.130604	-0.153123	0	0.745463	-0.120222	-0.0969838	0.762936	-0.124597	-0.045057	0	0.0469378	-0.00764008	0.102025	2.65591	-0.186396	0.957687	0.67991	2.09	2.77462	-0.0837849	1.2175	0.679428	2.09
2.12	-0.311879	0.0220222	-0.0752016	-0.131836	0.979817	-0.608806	0.621292	-0.12349	0.0295302	0.578512	-0.228299	-0.0957371	0	0.672927	-0.109922	-0.108645	0.655234	-0.212602	-0.000287673	0	0.0516016	-0.00752873	0.101683	2.66914	-0.16777	0.983942	0.590391	2.09	2.78205	-0.0668429	1.27553	0.605941	2.09
2.13	-0.298654	0.0218662	-0.0691375	-0.125545	1.00262	-0.610421	0.555538	-0.139641	-0.0098788	0.473129	-0.341212	-0.0408681	0	0.600641	-0.101167	-0.118678	0.539734	-0.317001	0.0349368	0	0.0585126	-0.00713526	0.100494	2.67762	-0.151114	1.00978	0.514478	2.09	2.78107	-0.0553265	1.31386	0.557974	2.09
2.14	-0.287588	0.0209751	-0.0645451	-0.119522	1.02488	-0.611699	0.492651	-0.154914	-0.0649943	0.36316	-0.473106	0.00854111	0	0.529161	-0.0961605	-0.131889	0.417298	-0.440302	0.0584949	0	0.0671389	-0.00614742	0.100009	2.68153	-0.137277	1.02989	0.45415	2.09	2.77361	-0.0496743	1.32957	0.533974	2.09
2.15	-0.278181	0.0176088	-0.0611813	-0.113817	1.04649	-0.612662	0.431128	-0.163743	-0.138229	0.250006	-0.602605	0.0571107	0	0.459464	-0.0967473	-0.156661	0.29037	-0.575117	0.0773946	0	0.0764268	-0.00280293	0.100003	2.68226	-0.127801	1.04342	0.410537	2.09	2.76199	-0.0489806	1.32985	0.526694	2.09
2.16	-0.271189	0.0113899	-0.05802	-0.108672	1.06722	-0.613351	0.373498	-0.16051	-0.206242	0.143598	-0.68235	0.112666	0	0.395271	-0.101443	-0.203583	0.16775	-0.68495	0.111655	0	0.0866263	0.0035596	0.0991038	2.68167	-0.122812	1.0548	0.382749	2.09	2.74893	-0.0524407	1.32585	0.528238	2.09
2.17	-0.268001	0.00556282	-0.0549665	-0.104475	1.08668	-0.61395	0.32855	-0.150654	-0.235327	0.0610441	-0.693808	0.166127	0	0.344555	-0.103173	-0.261961	0.0669317	-0.728841	0.169004	0	0.0988491	0.00963093	0.0966625	2.68044	-0.121301	1.06242	0.369688	2.09	2.73707	-0.0590528	1.32414	0.534611	2.09
2.18	-0.268934	0.00261623	-0.0526301	-0.101569	1.10459	-0.614587	0.308718	-0.146192	-0.263409	0.0239023	-0.676658	0.208231	0	0.314516	-0.100079	-0.304739	0.00384873	-0.71676	0.220625	0	0.112814	0.0123494	0.0933631	2.67944	-0.122777	1.06302	0.370312	2.09	2.72844	-0.0669035	1.32395	0.543208	2.09
2.19	-0.273532	-0.00291944	-0.0495895	-0.100087	1.12128	-0.615149	0.300126	-0.136756	-0.211805	0.00602618	-0.688547	0.0588138	0	0.30791	-0.103064	-0.358676	0	-0.697728	0.257323	0	0.127334	0.0171666	0.087384	2.67828	-0.126856	1.05215	0.384488	2.09	2.72234	-0.0754941	1.3171	0.553736	2.09
2.2	-0.279521	-0.00350218	-0.0481347	-0.0995963	1.13635	-0.61549	0.31856	-0.144263	-0.310153	0.0397529	-0.705854	0.0604422	0	0.314354	-0.105722	-0.411699	0	-0.70106	0.254739	0	0.141045	0.015892	0.0819124	2.67718	-0.13387	1.03451	0.408163	2.09	2.71866	-0.0835015	1.3034	0.565088	2.09
2.21	-0.281963	-0.00323355	-0.0458678	-0.0994412	1.15057	-0.615789	0.329105	-0.154931	-0.365503	0.0714575	-0.723113	0.0310552	0	0.31997	-0.111161	-0.458128	0.0221787	-0.713127	0.235625	0	0.149276	0.0125392	0.0751031	2.67649	-0.144672	1.02127	0.438776	2.09	2.71558	-0.0910201	1.28719	0.580905	2.09
2.22	-0.279899	-0.0107841	-0.0481389	-0.0994784	1.16525	-0.616352	0.353657	-0.18184	-0.622019	0.133653	-0.42496	0.610865	0	0.318836	-0.12621	-0.473207	0.0489062	-0.721376	0.209792	0	0.150732	0.0201236	0.0733072	2.67523	-0.156732	1.01009	0.476681	2.09	2.70535	-0.101605	1.25082	0.6093	2.09
2.23	-0.268216	0.00333157	-0.0399535	-0.097975	1.17763	-0.616763	0.319423	-0.187436	-0.410051	0.119899	-0.723121	0.0962434	0	0.304359	-0.111892	-0.442379	0.0660424	-0.72843	0.173912	0	0.143323	-0.00136702	0.0619964	2.67668	-0.169084	1.00685	0.507975	2.09	2.70118	-0.108718	1.22591	0.629939	2.09
2.24	-0.256705	0.00463271	-0.0372235	-0.096545	1.19044	-0.617194	0.303327	-0.191055	-0.355254	0.126773	-0.722869	0.0756985	0	0.28866	-0.110256	-0.409076	0.0767959	-0.734183	0.152272	0	0.13466	-0.0051765	0.0569219	2.67918	-0.179564	1.01204	0.540878	2.09	2.68958	-0.120083	1.18681	0.660204	2.09
2.25	-0.244872	0.00618434	-0.0333952	-0.0948808	1.2023	-0.617732	0.287697	-0.19535	-0.332818	0.134528	-0.719892	0.075259	0	0.271218	-0.106692	-0.392049	0.0799826	-0.735984	0.147221	0	0.126353	-0.00956871	0.0530797	2.68169	-0.190735	1.02037	0.573031	2.09	2.67458	-0.128312	1.14702	0.686871	2.09
2.26	-0.233841	0.00752196	-0.0267211	-0.0932071	1.21312	-0.618518	0.271867	-0.200194	-0.342102	0.13984	-0.715705	0.0894181	0	0.254354	-0.102417	-0.395008	0.0770794	-0.733151	0.156497	0	0.119897	-0.0147105	0.0483806	2.68249	-0.203348	1.02842	0.6058	2.09	2.65678	-0.131659	1.10813	0.706544	2.09
2.27	-0.224914	0.00818145	-0.0164372	-0.0918116	1.22279	-0.619649	0.255615	-0.204294	-0.368902	0.139098	-0.71016	0.112254	0	0.24069	-0.0984226	-0.411257	0.0705607	-0.725408	0.175731	0	0.115946	-0.0200118	0.0404989	2.68117	-0.21613	1.03441	0.637785	2.09	2.63996	-0.131715	1.07688	0.719224	2.09
2.28	-0.219155	0.00815202	-0.00421892	-0.0909975	1.2312	-0.621028	0.24065	-0.206425	-0.399267	0.131753	-0.70466	0.136373	0	0.232006	-0.0953183	-0.431834	0.0631305	-0.714507	0.197722	0	0.114589	-0.0249474	0.0303232	2.67884	-0.228107	1.03831	0.667128	2.09	2.62755	-0.130356	1.05797	0.726314	2.09
2.29	-0.216132	0.00733836	0.00759963	-0.090768	1.23837	-0.622361	0.228527	-0.206749	-0.429563	0.121694	-0.700134	0.156669	0	0.227953	-0.0938894	-0.448753	0.0570739	-0.70452	0.214069	0	0.114759	-0.0292238	0.0193303	2.67671	-0.239521	1.04112	0.694748	2.09	2.62185	-0.129245	1.05393	0.729791	2.09
2.3	-0.213772	0.00548048	0.0182177	-0.0908722	1.24447	-0.62345	0.218718	-0.206115	-0.461691	0.113896	-0.697269	0.168922	0	0.226414	-0.0947609	-0.454842	0.0541865	-0.698466	0.218262	0	0.113919	-0.0324577	0.00715739	2.67587	-0.250284	1.04568	0.721512	2.09	2.62415	-0.130612	1.06658	0.73307	2.09
2.31	-0.210547	0.00274788	0.0275882	-0.0911539	1.24962	-0.62434	0.21102	-0.205671	-0.496052	0.112222	-0.695214	0.172931	0	0.22587	-0.0976748	-0.44792	0.0556031	-0.696632	0.207951	0	0.110275	-0.0342909	-0.00672326	2.67677	-0.259001	1.05255	0.745825	2.09	2.63436	-0.136581	1.09557	0.740329	2.09
2.32	-0.207104	-0.000288197	0.034533	-0.0915576	1.25376	-0.625093	0.206436	-0.205162	-0.520184	0.116091	-0.693113	0.167457	0	0.226514	-0.10185	-0.434295	0.0610015	-0.697876	0.186428	0	0.104989	-0.0346929	-0.0200033	2.67904	-0.265181	1.05966	0.766792	2.09	2.64927	-0.147186	1.13252	0.754603	2.09
2.33	-0.204541	-0.00320523	0.0381775	-0.0919494	1.25688	-0.625721	0.205265	-0.203951	-0.524559	0.122482	-0.690626	0.155897	0	0.228463	-0.106495	-0.421155	0.0684691	-0.700512	0.161021	0	0.100106	-0.0340645	-0.0298318	2.68223	-0.270256	1.06635	0.786254	2.09	2.66473	-0.160778	1.16777	0.775983	2.09
2.34	-0.202587	-0.0062602	0.0389117	-0.0922352	1.25915	-0.626189	0.206552	-0.201769	-0.513393	0.130092	-0.688307	0.144272	0	0.230625	-0.111712	-0.412361	0.0758684	-0.702184	0.140975	0	0.0959567	-0.0324665	-0.0346072	2.68595	-0.275808	1.07342	0.806553	2.09	2.67696	-0.17492	1.19322	0.802159	2.09
2.35	-0.200945	-0.00935084	0.0379334	-0.0925374	1.26063	-0.62644	0.209434	-0.199229	-0.498082	0.138627	-0.686338	0.13689	0	0.232474	-0.11709	-0.406603	0.0814742	-0.702097	0.130334	0	0.0923125	-0.0306833	-0.0351237	2.68876	-0.282133	1.07851	0.828024	2.09	2.68476	-0.18766	1.20799	0.829986	2.09
2.36	-0.200976	-0.0115081	0.0361868	-0.0930104	1.26114	-0.626451	0.214004	-0.197037	-0.483832	0.145589	-0.685136	0.133565	0	0.235499	-0.12125	-0.402071	0.0843185	-0.700446	0.129126	0	0.0908047	-0.0304945	-0.0321723	2.68975	-0.290102	1.0815	0.850205	2.09	2.68681	-0.19734	1.21081	0.857146	2.09
2.37	-0.204033	-0.0123795	0.0343657	-0.0936148	1.26046	-0.626245	0.220468	-0.194688	-0.467908	0.148279	-0.686012	0.129538	0	0.241053	-0.123458	-0.395305	0.0840072	-0.698114	0.133034	0	0.093339	-0.0326053	-0.0270028	2.68834	-0.300446	1.08374	0.873545	2.09	2.68269	-0.204244	1.20275	0.883201	2.09
